<?xml version="1.0" encoding="utf-8"?>
<!-- Generator: Adobe Illustrator 24.3.0, SVG Export Plug-In . SVG Version: 6.00 Build 0)  -->
<svg version="1.1" id="Layer_1" xmlns="http://www.w3.org/2000/svg" xmlns:xlink="http://www.w3.org/1999/xlink" x="0px" y="0px"
	 viewBox="0 0 130 130" style="enable-background:new 0 0 130 130;" xml:space="preserve">
<style type="text/css">
	.st0{opacity:0.2;fill:#231F20;enable-background:new    ;}
	.st1{fill:#B6006A;}
	.st2{fill:#62165C;}
	.st3{opacity:0.26;fill:#231F20;enable-background:new    ;}
	.st4{fill:url(#Rectangle_216_1_);}
	.st5{fill:#D7D8D8;}
	.st6{fill:#D37190;}
	.st7{clip-path:url(#SVGID_2_);}
	.st8{fill:#FFB4B3;}
	.st9{fill:#CC8E68;}
	.st10{fill:#504F66;}
	.st11{fill:#D49D83;}
	.st12{fill:#002D3F;}
	.st13{fill:#87D3E1;}
	.st14{fill:#287DB2;}
	.st15{fill:#004F9D;}
	.st16{fill:#FFFFFF;}
	.st17{fill:#EBEBEB;}
</style>
<ellipse id="Ellipse_7" class="st0" cx="64.1" cy="119.8" rx="46" ry="2.3"/>
<circle id="Ellipse_5" class="st1" cx="65" cy="65.1" r="49"/>
<rect id="Rectangle_214" x="14.7" y="37.4" transform="matrix(0.1875 -0.9823 0.9823 0.1875 -16.9987 116.7124)" class="st2" width="94.8" height="62.5"/>
<rect id="Rectangle_215" x="17.4" y="42.2" transform="matrix(0.1871 -0.9823 0.9823 0.1871 -19.0292 116.5372)" class="st3" width="87.1" height="55.1"/>
<linearGradient id="Rectangle_216_1_" gradientUnits="userSpaceOnUse" x1="-575.2858" y1="203.4814" x2="-575.02" y2="203.4814" gradientTransform="matrix(49.5879 -260.4028 -164.811 -31.3846 62132.5273 -143389.5625)">
	<stop  offset="0" style="stop-color:#FFFFFF"/>
	<stop  offset="1" style="stop-color:#EDEFFA"/>
</linearGradient>
<polygon id="Rectangle_216" class="st4" points="26.7,106.7 43,21.1 97.2,31.4 80.9,117 "/>
<rect id="Rectangle_217" x="56" y="22" transform="matrix(0.1871 -0.9823 0.9823 0.1871 12.6115 83.1216)" class="st5" width="1.1" height="23.8"/>
<rect id="Rectangle_218" x="55.5" y="24.7" transform="matrix(0.1875 -0.9823 0.9823 0.1875 9.6044 84.7655)" class="st5" width="1.1" height="23.8"/>
<rect id="Rectangle_219" x="55" y="27.3" transform="matrix(0.1875 -0.9823 0.9823 0.1875 6.5877 86.3833)" class="st5" width="1.1" height="23.8"/>
<rect id="Rectangle_220" x="54.5" y="30" transform="matrix(0.1875 -0.9823 0.9823 0.1875 3.5881 88.0348)" class="st5" width="1.1" height="23.8"/>
<rect id="Rectangle_221" x="54" y="32.6" transform="matrix(0.1875 -0.9823 0.9823 0.1875 0.5872 89.6825)" class="st5" width="1.1" height="23.8"/>
<rect id="Rectangle_222" x="53.5" y="35.2" transform="matrix(0.1875 -0.9823 0.9823 0.1875 -2.4119 91.3315)" class="st5" width="1.1" height="23.8"/>
<rect id="Rectangle_223" x="53" y="37.9" transform="matrix(0.1875 -0.9823 0.9823 0.1875 -5.4126 92.9807)" class="st5" width="1.1" height="23.8"/>
<rect id="Rectangle_224" x="52.5" y="40.5" transform="matrix(0.1875 -0.9823 0.9823 0.1875 -8.412 94.6299)" class="st5" width="1.1" height="23.8"/>
<rect id="Rectangle_225" x="63.3" y="35" transform="matrix(0.1875 -0.9823 0.9823 0.1875 -5.8586 110.3885)" class="st5" width="1.1" height="47.4"/>
<rect id="Rectangle_226" x="62.8" y="37.7" transform="matrix(0.1875 -0.9823 0.9823 0.1875 -8.8582 112.0374)" class="st5" width="1.1" height="47.4"/>
<rect id="Rectangle_227" x="62.3" y="40.3" transform="matrix(0.1875 -0.9823 0.9823 0.1875 -11.8594 113.6865)" class="st5" width="1.1" height="47.4"/>
<rect id="Rectangle_228" x="61.8" y="43" transform="matrix(0.1875 -0.9823 0.9823 0.1875 -14.8589 115.3377)" class="st5" width="1.1" height="47.4"/>
<polygon class="st5" points="60.4,75.3 60.2,76.4 83.8,80.9 84,79.9 "/>
<polygon class="st5" points="59.9,78 59.7,79.1 83.2,83.3 83.4,82.3 "/>
<polygon class="st5" points="59.4,80.5 59.2,81.5 82.7,86 82.9,84.9 "/>
<polygon class="st5" points="59,83.2 58.8,84.2 82.2,88.6 82.4,87.5 "/>
<polygon class="st5" points="58.5,85.9 58.3,87 81.7,91.2 81.9,90.2 "/>
<polygon id="Rectangle_234" class="st5" points="57.7,90.5 57.9,89.4 74.2,92.5 74,93.5 "/>
<polygon id="Rectangle_235" class="st5" points="57.2,93.1 57.4,92.1 73.7,95.1 73.5,96.2 "/>
<rect id="Rectangle_236" x="56" y="73.1" transform="matrix(0.1871 -0.9823 0.9823 0.1871 -49.1624 134.2089)" class="st5" width="1.1" height="47.4"/>
<rect id="Rectangle_237" x="55.5" y="75.8" transform="matrix(0.1875 -0.9823 0.9823 0.1875 -52.1632 135.8405)" class="st5" width="1.1" height="47.4"/>
<g id="Group_1574" transform="translate(539.631 124.857)">
	
		<rect id="Rectangle_238" x="-470.8" y="-87" transform="matrix(0.1875 -0.9823 0.9823 0.1875 -298.8305 -514.6039)" class="st6" width="20.6" height="20.6"/>
</g>
<g id="Group_1584" transform="translate(539.631 124.857)">
	<g>
		<g>
			<g>
				<defs>
					
						<rect id="SVGID_1_" x="-470.8" y="-87" transform="matrix(0.1875 -0.9823 0.9823 0.1875 -298.8305 -514.6039)" width="20.6" height="20.6"/>
				</defs>
				<clipPath id="SVGID_2_">
					<use xlink:href="#SVGID_1_"  style="overflow:visible;"/>
				</clipPath>
				<g id="Group_1583" class="st7">
					<g id="Group_1582" transform="translate(-17.882 7.634)">
						<g id="Group_1581">
							<path id="Path_1834" class="st8" d="M-438-57.9l-1.2,3.6c0.9,0.6,1.1,1.9,0.5,2.8c-0.5,0.7-1.3,1-2.1,0.8l0.4-7.4L-438-57.9z
								"/>
							<g id="Group_1579" transform="translate(50.16 74.25)">
								<path id="Path_1840" class="st9" d="M-489.7-143.7c0,0-0.1,0.2-0.2,0.5c0,0.1-0.4,1.4-0.7,2.6c-0.2,1.1-0.7,3.6-1.1,6.8
									c-0.2,0.1-0.5,0.2-0.7,0.2c-0.6,0.2-1.2,0.4-1.9,0.5c0.1,2,1.1,3.9,2.7,5.2c-0.4-2-0.5-4.1-0.4-6.1
									C-491.6-137.2-490.9-140.6-489.7-143.7z"/>
							</g>
							<path id="Path_1841" class="st8" d="M-455-64.1l2.5,3.9l-1.1,2.4l-3.2-4.7L-455-64.1z"/>
							<path id="Path_1842" class="st10" d="M-454.1-58.6l0,0.2c-0.1,0.7-0.2,1.4-0.3,2c1.4-1.1,2.3-2.8,2.5-4.6c0,0,0,0,0,0
								c-0.1-0.2-0.3-0.4-0.5-0.5c-0.3-0.2-0.6-0.3-1-0.4h0c0,0,0,0,0,0l0,0c0,0.1-0.1,0.1-0.1,0.2c0.1,0.2,0.2,0.3,0.3,0.5
								c0.1,0.1,0.2,0.3,0.3,0.4c0,0.1,0.1,0.1,0.1,0.2c-0.1,0.6-0.3,1.1-0.6,1.7c-0.1,0.3-0.3,0.6-0.5,0.8L-454.1-58.6L-454.1-58.6
								z"/>
							<g id="Group_1580" transform="translate(0 39.82)">
								<path id="Path_1849" class="st11" d="M-453.6-102l-2.2,1.9c-2-2.5-3.5-4.4-4.1-5.2c-0.4-0.5-0.6-1-0.6-1.6
									c0-0.3,0-0.5,0.2-0.8c0.2-0.3,0.4-0.5,0.7-0.7c0,0,0,0,0,0c0.3-0.2,0.6-0.3,0.9-0.4c1-0.2,1.8,0.8,1.8,0.8l0,0
									C-456.9-107.9-455.5-105.4-453.6-102z"/>
							</g>
						</g>
					</g>
				</g>
			</g>
		</g>
	</g>
</g>
<g>
	
		<rect x="82.3" y="53.8" transform="matrix(0.1859 -0.9826 0.9826 0.1859 15.1309 129.2644)" class="st12" width="6.6" height="3.3"/>
</g>
<g>
	
		<rect x="74.5" y="48.3" transform="matrix(0.1859 -0.9826 0.9826 0.1859 18.2896 121.9204)" class="st13" width="16.5" height="3.3"/>
</g>
<g>
	
		<rect x="71.6" y="48.4" transform="matrix(0.1859 -0.9826 0.9826 0.1859 15.1581 118.4312)" class="st14" width="14.9" height="3.3"/>
</g>
<g>
	<rect x="70.4" y="50.6" transform="matrix(0.1859 -0.9826 0.9826 0.1859 9.6064 116.0907)" class="st1" width="9" height="3.3"/>
</g>
<g>
	
		<rect x="65.5" y="48.4" transform="matrix(0.1859 -0.9826 0.9826 0.1859 9.0228 111.0043)" class="st15" width="12.1" height="3.3"/>
</g>
<g id="Group_1574_1_" transform="translate(539.631 124.857)">
	
		<rect id="Rectangle_238_1_" x="-504.3" y="-52.4" transform="matrix(0.1875 -0.9823 0.9823 0.1875 -360.0905 -519.4543)" class="st6" width="20.6" height="20.6"/>
</g>
<g>
	<g>
		<g>
			<path class="st2" d="M45.6,83.1h-8.3c0-4.6,3.7-8.3,8.3-8.3l0,0V83.1z"/>
		</g>
		<g>
			<path class="st13" d="M45.6,83.1l-4.9,6.7c-2.2-1.6-3.4-4-3.4-6.7H45.6z"/>
		</g>
		<g>
			<path class="st1" d="M45.6,83.1L43,91c-0.9-0.3-1.6-0.6-2.3-1.2L45.6,83.1z"/>
		</g>
		<g>
			<path class="st16" d="M45.6,83.1l6.7,4.9c-2.2,3-5.8,4.1-9.3,3L45.6,83.1z"/>
		</g>
		<g>
			<path class="st17" d="M45.6,83.1l8.2,1.3c-0.2,1.4-0.7,2.5-1.5,3.6L45.6,83.1z"/>
		</g>
		<g>
			<path class="st12" d="M45.6,83.1l4.9-6.7c2.6,1.9,3.8,4.8,3.3,8L45.6,83.1z"/>
		</g>
		<g>
			<path class="st14" d="M45.6,83.1v-8.3c1.8,0,3.4,0.5,4.9,1.6L45.6,83.1z"/>
		</g>
	</g>
</g>
</svg>
